<svg xmlns="http://www.w3.org/2000/svg" width="1920" height="1080"><path d="M1036,540L883,540L883,693Z" fill="#3475df" stroke="#3475df" stroke-width="1.51"/><path d="M883,693L1036,693L1036,540Z" fill="#3377df" stroke="#3377df" stroke-width="1.51"/><path d="M883,540L729,540L883,693Z" fill="#3b79de" stroke="#3b79de" stroke-width="1.51"/><path d="M729,540L729,693L883,693Z" fill="#3f7ede" stroke="#3f7ede" stroke-width="1.51"/><path d="M1036,540L883,386L883,540Z" fill="#3875de" stroke="#3875de" stroke-width="1.51"/><path d="M883,540L883,386L729,540Z" fill="#3f7add" stroke="#3f7add" stroke-width="1.51"/><path d="M883,693L883,847L1036,693Z" fill="#377ce0" stroke="#377ce0" stroke-width="1.51"/><path d="M729,693L883,847L883,693Z" fill="#3e81df" stroke="#3e81df" stroke-width="1.51"/><path d="M1036,540L1036,386L883,386Z" fill="#3b79dd" stroke="#3b79dd" stroke-width="1.51"/><path d="M883,847L1036,847L1036,693Z" fill="#377ee1" stroke="#377ee1" stroke-width="1.51"/><path d="M1036,693L1190,540L1036,540Z" fill="#3477e0" stroke="#3477e0" stroke-width="1.51"/><path d="M1036,540L1190,540L1036,386Z" fill="#3878de" stroke="#3878de" stroke-width="1.51"/><path d="M1190,693L1190,540L1036,693Z" fill="#367ce0" stroke="#367ce0" stroke-width="1.51"/><path d="M1036,847L1190,693L1036,693Z" fill="#387fe1" stroke="#387fe1" stroke-width="1.51"/><path d="M883,386L729,386L729,540Z" fill="#4680db" stroke="#4680db" stroke-width="1.51"/><path d="M729,693L729,847L883,847Z" fill="#4286df" stroke="#4286df" stroke-width="1.51"/><path d="M1190,540L1190,386L1036,386Z" fill="#3e7edd" stroke="#3e7edd" stroke-width="1.51"/><path d="M1036,847L1190,847L1190,693Z" fill="#3983e2" stroke="#3983e2" stroke-width="1.51"/><path d="M729,540L576,540L729,693Z" fill="#4480dc" stroke="#4480dc" stroke-width="1.51"/><path d="M729,693L576,693L729,847Z" fill="#4788de" stroke="#4788de" stroke-width="1.51"/><path d="M729,386L576,540L729,540Z" fill="#4781db" stroke="#4781db" stroke-width="1.51"/><path d="M576,540L576,693L729,693Z" fill="#4885dc" stroke="#4885dc" stroke-width="1.51"/><path d="M883,847L883,1000L1036,847Z" fill="#3b83e2" stroke="#3b83e2" stroke-width="1.51"/><path d="M1036,847L1036,1000L1190,847Z" fill="#3b86e3" stroke="#3b86e3" stroke-width="1.51"/><path d="M729,847L883,1000L883,847Z" fill="#4188e1" stroke="#4188e1" stroke-width="1.51"/><path d="M883,1000L1036,1000L1036,847Z" fill="#3a86e2" stroke="#3a86e2" stroke-width="1.51"/><path d="M883,386L883,232L729,386Z" fill="#4b85db" stroke="#4b85db" stroke-width="1.51"/><path d="M1036,386L883,232L883,386Z" fill="#4680dc" stroke="#4680dc" stroke-width="1.51"/><path d="M1036,232L883,232L1036,386Z" fill="#4983db" stroke="#4983db" stroke-width="1.51"/><path d="M1190,386L1036,232L1036,386Z" fill="#4683dd" stroke="#4683dd" stroke-width="1.51"/><path d="M1190,540L1344,540L1190,386Z" fill="#3a7ee0" stroke="#3a7ee0" stroke-width="1.51"/><path d="M1190,693L1344,540L1190,540Z" fill="#367de1" stroke="#367de1" stroke-width="1.51"/><path d="M1344,693L1344,540L1190,693Z" fill="#3881e1" stroke="#3881e1" stroke-width="1.51"/><path d="M1190,847L1344,693L1190,693Z" fill="#3a84e2" stroke="#3a84e2" stroke-width="1.51"/><path d="M729,386L576,386L576,540Z" fill="#4e87da" stroke="#4e87da" stroke-width="1.51"/><path d="M729,232L576,386L729,386Z" fill="#528cd9" stroke="#528cd9" stroke-width="1.51"/><path d="M729,847L729,1000L883,1000Z" fill="#458de1" stroke="#458de1" stroke-width="1.51"/><path d="M576,693L576,847L729,847Z" fill="#4b8dde" stroke="#4b8dde" stroke-width="1.51"/><path d="M576,847L729,1000L729,847Z" fill="#4990df" stroke="#4990df" stroke-width="1.51"/><path d="M1036,1000L1190,1000L1190,847Z" fill="#3c8be3" stroke="#3c8be3" stroke-width="1.51"/><path d="M1190,847L1344,847L1344,693Z" fill="#3c88e3" stroke="#3c88e3" stroke-width="1.51"/><path d="M883,232L729,232L729,386Z" fill="#518bd9" stroke="#518bd9" stroke-width="1.51"/><path d="M1344,386L1190,232L1190,386Z" fill="#4888de" stroke="#4888de" stroke-width="1.51"/><path d="M1190,386L1190,232L1036,232Z" fill="#4a88dc" stroke="#4a88dc" stroke-width="1.51"/><path d="M1344,540L1344,386L1190,386Z" fill="#4083de" stroke="#4083de" stroke-width="1.51"/><path d="M1190,1000L1344,847L1190,847Z" fill="#3c8ce4" stroke="#3c8ce4" stroke-width="1.51"/><path d="M576,847L576,1000L729,1000Z" fill="#4c95df" stroke="#4c95df" stroke-width="1.51"/><path d="M576,540L422,540L576,693Z" fill="#4c88db" stroke="#4c88db" stroke-width="1.51"/><path d="M576,693L422,693L576,847Z" fill="#4e8fdc" stroke="#4e8fdc" stroke-width="1.51"/><path d="M576,847L422,847L576,1000Z" fill="#5097de" stroke="#5097de" stroke-width="1.51"/><path d="M576,386L422,540L576,540Z" fill="#4f89da" stroke="#4f89da" stroke-width="1.51"/><path d="M422,386L422,540L576,386Z" fill="#548fd8" stroke="#548fd8" stroke-width="1.51"/><path d="M422,540L422,693L576,693Z" fill="#4f8ddb" stroke="#4f8ddb" stroke-width="1.51"/><path d="M1036,79L883,79L1036,232Z" fill="#538ed8" stroke="#538ed8" stroke-width="1.51"/><path d="M1036,232L883,79L883,232Z" fill="#518ad9" stroke="#518ad9" stroke-width="1.51"/><path d="M883,232L883,79L729,232Z" fill="#558fd8" stroke="#558fd8" stroke-width="1.51"/><path d="M729,1000L883,1154L883,1000Z" fill="#4087e1" stroke="#4087e1" stroke-width="1.51"/><path d="M883,1000L883,1154L1036,1000Z" fill="#3982e3" stroke="#3982e3" stroke-width="1.51"/><path d="M1036,1000L1036,1154L1190,1000Z" fill="#3985e4" stroke="#3985e4" stroke-width="1.51"/><path d="M729,1154L883,1154L729,1000Z" fill="#4188e1" stroke="#4188e1" stroke-width="1.51"/><path d="M1190,232L1036,79L1036,232Z" fill="#518dda" stroke="#518dda" stroke-width="1.51"/><path d="M883,1154L1036,1154L1036,1000Z" fill="#3680e3" stroke="#3680e3" stroke-width="1.51"/><path d="M1190,1000L1344,1000L1344,847Z" fill="#3e90e4" stroke="#3e90e4" stroke-width="1.51"/><path d="M1344,540L1497,540L1344,386Z" fill="#3c83e1" stroke="#3c83e1" stroke-width="1.51"/><path d="M1344,693L1497,540L1344,540Z" fill="#3982e2" stroke="#3982e2" stroke-width="1.51"/><path d="M1497,693L1497,540L1344,693Z" fill="#3a86e2" stroke="#3a86e2" stroke-width="1.51"/><path d="M1344,847L1497,693L1344,693Z" fill="#3c89e3" stroke="#3c89e3" stroke-width="1.51"/><path d="M729,232L576,232L576,386Z" fill="#5892d8" stroke="#5892d8" stroke-width="1.51"/><path d="M729,79L576,232L729,232Z" fill="#5b96d7" stroke="#5b96d7" stroke-width="1.51"/><path d="M1344,847L1497,847L1497,693Z" fill="#3d8de4" stroke="#3d8de4" stroke-width="1.51"/><path d="M1190,1154L1344,1000L1190,1000Z" fill="#3b8be5" stroke="#3b8be5" stroke-width="1.51"/><path d="M1344,386L1344,232L1190,232Z" fill="#4c8ddd" stroke="#4c8ddd" stroke-width="1.51"/><path d="M1190,232L1190,79L1036,79Z" fill="#5493d9" stroke="#5493d9" stroke-width="1.51"/><path d="M1497,386L1344,232L1344,386Z" fill="#498dde" stroke="#498dde" stroke-width="1.51"/><path d="M576,232L422,386L576,386Z" fill="#5893d8" stroke="#5893d8" stroke-width="1.51"/><path d="M422,693L422,847L576,847Z" fill="#5194dc" stroke="#5194dc" stroke-width="1.51"/><path d="M883,79L729,79L729,232Z" fill="#5a95d7" stroke="#5a95d7" stroke-width="1.51"/><path d="M576,1154L729,1154L576,1000Z" fill="#4a8fdf" stroke="#4a8fdf" stroke-width="1.51"/><path d="M576,1000L729,1154L729,1000Z" fill="#488ee0" stroke="#488ee0" stroke-width="1.51"/><path d="M1344,232L1190,79L1190,232Z" fill="#5293db" stroke="#5293db" stroke-width="1.51"/><path d="M1036,1154L1190,1154L1190,1000Z" fill="#3885e4" stroke="#3885e4" stroke-width="1.51"/><path d="M1497,540L1497,386L1344,386Z" fill="#4188e0" stroke="#4188e0" stroke-width="1.51"/><path d="M1344,1000L1497,847L1344,847Z" fill="#3e91e5" stroke="#3e91e5" stroke-width="1.51"/><path d="M422,847L422,1000L576,1000Z" fill="#539cde" stroke="#539cde" stroke-width="1.51"/><path d="M729,79L576,79L576,232Z" fill="#5f9cd5" stroke="#5f9cd5" stroke-width="1.51"/><path d="M576,232L422,232L422,386Z" fill="#5d99d6" stroke="#5d99d6" stroke-width="1.51"/><path d="M422,1000L576,1154L576,1000Z" fill="#4f96df" stroke="#4f96df" stroke-width="1.51"/><path d="M1344,1000L1497,1000L1497,847Z" fill="#3f95e5" stroke="#3f95e5" stroke-width="1.51"/><path d="M1344,1154L1497,1000L1344,1000Z" fill="#3d90e5" stroke="#3d90e5" stroke-width="1.51"/><path d="M576,79L422,232L576,232Z" fill="#609ed5" stroke="#609ed5" stroke-width="1.51"/><path d="M1497,232L1344,79L1344,232Z" fill="#5398dc" stroke="#5398dc" stroke-width="1.51"/><path d="M1344,232L1344,79L1190,79Z" fill="#5598da" stroke="#5598da" stroke-width="1.51"/><path d="M1190,1154L1344,1154L1344,1000Z" fill="#3a8ae4" stroke="#3a8ae4" stroke-width="1.51"/><path d="M1497,386L1497,232L1344,232Z" fill="#4d92dd" stroke="#4d92dd" stroke-width="1.51"/><path d="M422,540L268,540L422,693Z" fill="#538fd9" stroke="#538fd9" stroke-width="1.51"/><path d="M422,693L268,693L422,847Z" fill="#5597db" stroke="#5597db" stroke-width="1.51"/><path d="M422,847L268,847L422,1000Z" fill="#569edc" stroke="#569edc" stroke-width="1.51"/><path d="M422,386L268,540L422,540Z" fill="#5690d8" stroke="#5690d8" stroke-width="1.51"/><path d="M268,386L268,540L422,386Z" fill="#5894d8" stroke="#5894d8" stroke-width="1.51"/><path d="M268,540L268,693L422,693Z" fill="#5492da" stroke="#5492da" stroke-width="1.51"/><path d="M883,79L883,-75L729,79Z" fill="#5492dc" stroke="#5492dc" stroke-width="1.51"/><path d="M729,79L729,-75L576,79Z" fill="#5a99db" stroke="#5a99db" stroke-width="1.51"/><path d="M1036,79L883,-75L883,79Z" fill="#508ddd" stroke="#508ddd" stroke-width="1.51"/><path d="M1036,-75L883,-75L1036,79Z" fill="#4c8ce0" stroke="#4c8ce0" stroke-width="1.51"/><path d="M1036,-75L1036,79L1190,79Z" fill="#5090de" stroke="#5090de" stroke-width="1.51"/><path d="M1036,1154L1036,1308L1190,1154Z" fill="#347fe4" stroke="#347fe4" stroke-width="1.51"/><path d="M1190,1154L1190,1308L1344,1154Z" fill="#3684e5" stroke="#3684e5" stroke-width="1.51"/><path d="M883,1154L883,1308L1036,1154Z" fill="#347ce3" stroke="#347ce3" stroke-width="1.51"/><path d="M729,1154L883,1308L883,1154Z" fill="#3b81e2" stroke="#3b81e2" stroke-width="1.51"/><path d="M729,1308L883,1308L729,1154Z" fill="#3d81e2" stroke="#3d81e2" stroke-width="1.51"/><path d="M1190,-75L1036,-75L1190,79Z" fill="#4d91e1" stroke="#4d91e1" stroke-width="1.51"/><path d="M883,1308L1036,1308L1036,1154Z" fill="#307ae3" stroke="#307ae3" stroke-width="1.51"/><path d="M1497,540L1651,540L1497,386Z" fill="#3e88e2" stroke="#3e88e2" stroke-width="1.51"/><path d="M1497,386L1651,386L1497,232Z" fill="#4b93df" stroke="#4b93df" stroke-width="1.51"/><path d="M1497,693L1651,540L1497,540Z" fill="#3b87e3" stroke="#3b87e3" stroke-width="1.51"/><path d="M1651,693L1651,540L1497,693Z" fill="#3b8ae3" stroke="#3b8ae3" stroke-width="1.51"/><path d="M1651,693L1497,693L1497,847Z" fill="#3d8ee4" stroke="#3d8ee4" stroke-width="1.51"/><path d="M1651,847L1651,693L1497,847Z" fill="#3e91e5" stroke="#3e91e5" stroke-width="1.51"/><path d="M422,232L268,386L422,386Z" fill="#5e9bd6" stroke="#5e9bd6" stroke-width="1.51"/><path d="M268,693L268,847L422,847Z" fill="#559adc" stroke="#559adc" stroke-width="1.51"/><path d="M422,1000L422,1154L576,1154Z" fill="#5196de" stroke="#5196de" stroke-width="1.51"/><path d="M576,79L422,79L422,232Z" fill="#64a4d4" stroke="#64a4d4" stroke-width="1.51"/><path d="M883,-75L729,-75L729,79Z" fill="#5493de" stroke="#5493de" stroke-width="1.51"/><path d="M576,1154L729,1308L729,1154Z" fill="#4488e0" stroke="#4488e0" stroke-width="1.51"/><path d="M576,1308L729,1308L576,1154Z" fill="#4688e1" stroke="#4688e1" stroke-width="1.51"/><path d="M1344,79L1190,-75L1190,79Z" fill="#5195df" stroke="#5195df" stroke-width="1.51"/><path d="M1036,1308L1190,1308L1190,1154Z" fill="#337fe4" stroke="#337fe4" stroke-width="1.51"/><path d="M1651,540L1651,386L1497,386Z" fill="#428ce1" stroke="#428ce1" stroke-width="1.51"/><path d="M1651,1000L1651,847L1497,1000Z" fill="#4099e6" stroke="#4099e6" stroke-width="1.51"/><path d="M1497,1000L1651,847L1497,847Z" fill="#4096e6" stroke="#4096e6" stroke-width="1.51"/><path d="M422,232L268,232L268,386Z" fill="#609fd6" stroke="#609fd6" stroke-width="1.51"/><path d="M576,-75L422,79L576,79Z" fill="#60a0d9" stroke="#60a0d9" stroke-width="1.51"/><path d="M268,1000L422,1154L422,1000Z" fill="#569ddd" stroke="#569ddd" stroke-width="1.51"/><path d="M1651,232L1497,79L1497,232Z" fill="#549ddd" stroke="#549ddd" stroke-width="1.51"/><path d="M1497,232L1497,79L1344,79Z" fill="#569ddb" stroke="#569ddb" stroke-width="1.51"/><path d="M1344,79L1344,-75L1190,-75Z" fill="#4f96e2" stroke="#4f96e2" stroke-width="1.51"/><path d="M1344,1154L1497,1154L1497,1000Z" fill="#3c8fe6" stroke="#3c8fe6" stroke-width="1.51"/><path d="M1344,1308L1497,1154L1344,1154Z" fill="#3889e6" stroke="#3889e6" stroke-width="1.51"/><path d="M268,847L268,1000L422,1000Z" fill="#57a1dd" stroke="#57a1dd" stroke-width="1.51"/><path d="M729,-75L576,-75L576,79Z" fill="#5a9add" stroke="#5a9add" stroke-width="1.51"/><path d="M422,1154L576,1308L576,1154Z" fill="#4c8fdf" stroke="#4c8fdf" stroke-width="1.51"/><path d="M1497,1154L1651,1000L1497,1000Z" fill="#3e95e7" stroke="#3e95e7" stroke-width="1.51"/><path d="M422,79L268,232L422,232Z" fill="#65a5d4" stroke="#65a5d4" stroke-width="1.51"/><path d="M268,79L268,232L422,79Z" fill="#67a9d3" stroke="#67a9d3" stroke-width="1.51"/><path d="M1497,79L1344,-75L1344,79Z" fill="#529ae0" stroke="#529ae0" stroke-width="1.51"/><path d="M1190,1308L1344,1308L1344,1154Z" fill="#3684e6" stroke="#3684e6" stroke-width="1.51"/><path d="M1497,1154L1651,1154L1651,1000Z" fill="#3c93e7" stroke="#3c93e7" stroke-width="1.51"/><path d="M1497,79L1497,-75L1344,-75Z" fill="#509be3" stroke="#509be3" stroke-width="1.51"/><path d="M1651,386L1651,232L1497,232Z" fill="#4e96de" stroke="#4e96de" stroke-width="1.51"/><path d="M268,386L115,540L268,540Z" fill="#528fdc" stroke="#528fdc" stroke-width="1.51"/><path d="M268,540L115,540L268,693Z" fill="#508edd" stroke="#508edd" stroke-width="1.51"/><path d="M268,693L115,693L268,847Z" fill="#5196df" stroke="#5196df" stroke-width="1.51"/><path d="M268,847L115,847L268,1000Z" fill="#539de0" stroke="#539de0" stroke-width="1.51"/><path d="M115,386L115,540L268,386Z" fill="#5392dd" stroke="#5392dd" stroke-width="1.51"/><path d="M115,540L115,693L268,693Z" fill="#4e90e0" stroke="#4e90e0" stroke-width="1.51"/><path d="M883,-75L883,-228L729,-75Z" fill="#4c8fe4" stroke="#4c8fe4" stroke-width="1.51"/><path d="M729,-75L729,-228L576,-75Z" fill="#5396e2" stroke="#5396e2" stroke-width="1.51"/><path d="M1036,-75L883,-228L883,-75Z" fill="#468ae5" stroke="#468ae5" stroke-width="1.51"/><path d="M1036,-228L883,-228L1036,-75Z" fill="#4189e8" stroke="#4189e8" stroke-width="1.51"/><path d="M1036,-228L1036,-75L1190,-75Z" fill="#468de6" stroke="#468de6" stroke-width="1.51"/><path d="M1190,-228L1036,-228L1190,-75Z" fill="#428ee9" stroke="#428ee9" stroke-width="1.51"/><path d="M1651,386L1804,386L1651,232Z" fill="#498fe0" stroke="#498fe0" stroke-width="1.51"/><path d="M1651,540L1804,540L1651,386Z" fill="#3c85e2" stroke="#3c85e2" stroke-width="1.51"/><path d="M1651,693L1804,540L1651,540Z" fill="#3884e3" stroke="#3884e3" stroke-width="1.51"/><path d="M1804,693L1804,540L1651,693Z" fill="#3885e4" stroke="#3885e4" stroke-width="1.51"/><path d="M1804,693L1651,693L1651,847Z" fill="#3b8be5" stroke="#3b8be5" stroke-width="1.51"/><path d="M1804,847L1804,693L1651,847Z" fill="#3b8ce5" stroke="#3b8ce5" stroke-width="1.51"/><path d="M268,232L115,386L268,386Z" fill="#5b9ada" stroke="#5b9ada" stroke-width="1.51"/><path d="M115,693L115,847L268,847Z" fill="#5098e1" stroke="#5098e1" stroke-width="1.51"/><path d="M422,-75L268,79L422,79Z" fill="#65a8d7" stroke="#65a8d7" stroke-width="1.51"/><path d="M883,-228L729,-228L729,-75Z" fill="#4b90e6" stroke="#4b90e6" stroke-width="1.51"/><path d="M1344,-75L1190,-228L1190,-75Z" fill="#4892e7" stroke="#4892e7" stroke-width="1.51"/><path d="M1804,540L1804,386L1651,386Z" fill="#4087e1" stroke="#4087e1" stroke-width="1.51"/><path d="M1804,1000L1804,847L1651,1000Z" fill="#3d94e7" stroke="#3d94e7" stroke-width="1.51"/><path d="M1651,1000L1804,847L1651,847Z" fill="#3e93e6" stroke="#3e93e6" stroke-width="1.51"/><path d="M268,232L115,232L115,386Z" fill="#5c9ddb" stroke="#5c9ddb" stroke-width="1.51"/><path d="M422,-75L422,79L576,-75Z" fill="#60a2db" stroke="#60a2db" stroke-width="1.51"/><path d="M422,1154L422,1308L576,1308Z" fill="#4e90df" stroke="#4e90df" stroke-width="1.51"/><path d="M268,1000L268,1154L422,1154Z" fill="#559cde" stroke="#559cde" stroke-width="1.51"/><path d="M115,1000L268,1154L268,1000Z" fill="#529ce1" stroke="#529ce1" stroke-width="1.51"/><path d="M576,-228L422,-75L576,-75Z" fill="#599de1" stroke="#599de1" stroke-width="1.51"/><path d="M268,1154L422,1308L422,1154Z" fill="#5397de" stroke="#5397de" stroke-width="1.51"/><path d="M1651,79L1497,-75L1497,79Z" fill="#539fe1" stroke="#539fe1" stroke-width="1.51"/><path d="M1344,-75L1344,-228L1190,-228Z" fill="#4493e9" stroke="#4493e9" stroke-width="1.51"/><path d="M1651,79L1497,79L1651,232Z" fill="#56a1dc" stroke="#56a1dc" stroke-width="1.51"/><path d="M1344,1308L1497,1308L1497,1154Z" fill="#3889e7" stroke="#3889e7" stroke-width="1.51"/><path d="M1804,232L1651,79L1651,232Z" fill="#539ade" stroke="#539ade" stroke-width="1.51"/><path d="M1497,1308L1651,1154L1497,1154Z" fill="#3a8ee7" stroke="#3a8ee7" stroke-width="1.51"/><path d="M115,847L115,1000L268,1000Z" fill="#519fe3" stroke="#519fe3" stroke-width="1.51"/><path d="M729,-228L576,-228L576,-75Z" fill="#5297e4" stroke="#5297e4" stroke-width="1.51"/><path d="M1651,1154L1804,1000L1651,1000Z" fill="#3c92e7" stroke="#3c92e7" stroke-width="1.51"/><path d="M268,79L115,232L268,232Z" fill="#63a4d7" stroke="#63a4d7" stroke-width="1.51"/><path d="M1497,-75L1344,-228L1344,-75Z" fill="#4997e8" stroke="#4997e8" stroke-width="1.51"/><path d="M1804,386L1804,232L1651,232Z" fill="#4c91df" stroke="#4c91df" stroke-width="1.51"/><path d="M268,79L115,79L115,232Z" fill="#63a7d8" stroke="#63a7d8" stroke-width="1.51"/><path d="M422,-75L268,-75L268,79Z" fill="#63a7db" stroke="#63a7db" stroke-width="1.51"/><path d="M422,-228L268,-75L422,-75Z" fill="#5fa5e0" stroke="#5fa5e0" stroke-width="1.51"/><path d="M115,1154L268,1308L268,1154Z" fill="#4f96e2" stroke="#4f96e2" stroke-width="1.51"/><path d="M268,1154L268,1308L422,1308Z" fill="#5295df" stroke="#5295df" stroke-width="1.51"/><path d="M1804,79L1651,-75L1651,79Z" fill="#529ce2" stroke="#529ce2" stroke-width="1.51"/><path d="M1651,79L1651,-75L1497,-75Z" fill="#509fe4" stroke="#509fe4" stroke-width="1.51"/><path d="M1497,-75L1497,-228L1344,-228Z" fill="#4698ea" stroke="#4698ea" stroke-width="1.51"/><path d="M1651,1154L1804,1154L1804,1000Z" fill="#3a8ee7" stroke="#3a8ee7" stroke-width="1.51"/><path d="M1497,1308L1651,1308L1651,1154Z" fill="#388de8" stroke="#388de8" stroke-width="1.51"/><path d="M268,-75L115,79L268,79Z" fill="#62a7db" stroke="#62a7db" stroke-width="1.51"/><path d="M115,1000L115,1154L268,1154Z" fill="#4f9ae3" stroke="#4f9ae3" stroke-width="1.51"/><path d="M576,-228L422,-228L422,-75Z" fill="#599fe3" stroke="#599fe3" stroke-width="1.51"/><path d="M1651,-75L1497,-228L1497,-75Z" fill="#4a9ce9" stroke="#4a9ce9" stroke-width="1.51"/><path d="M1804,232L1804,79L1651,79Z" fill="#559cdd" stroke="#559cdd" stroke-width="1.51"/><path d="M1651,1308L1804,1154L1651,1154Z" fill="#388be8" stroke="#388be8" stroke-width="1.51"/><path d="M115,386L-39,540L115,540Z" fill="#4c8de2" stroke="#4c8de2" stroke-width="1.51"/><path d="M115,540L-39,540L115,693Z" fill="#498ce3" stroke="#498ce3" stroke-width="1.51"/><path d="M115,693L-39,693L115,847Z" fill="#4b94e5" stroke="#4b94e5" stroke-width="1.51"/><path d="M115,847L-39,847L115,1000Z" fill="#4d9be6" stroke="#4d9be6" stroke-width="1.51"/><path d="M115,1000L-39,1000L115,1154Z" fill="#4c9ae7" stroke="#4c9ae7" stroke-width="1.51"/><path d="M-39,386L-39,540L115,386Z" fill="#4d90e3" stroke="#4d90e3" stroke-width="1.51"/><path d="M-39,386L115,386L115,232Z" fill="#5698e0" stroke="#5698e0" stroke-width="1.51"/><path d="M-39,540L-39,693L115,693Z" fill="#478ee5" stroke="#478ee5" stroke-width="1.51"/><path d="M1804,386L1958,386L1804,232Z" fill="#478be0" stroke="#478be0" stroke-width="1.51"/><path d="M1804,232L1958,232L1804,79Z" fill="#5195de" stroke="#5195de" stroke-width="1.51"/><path d="M1804,540L1958,540L1804,386Z" fill="#3980e2" stroke="#3980e2" stroke-width="1.51"/><path d="M1804,693L1958,540L1804,540Z" fill="#357fe4" stroke="#357fe4" stroke-width="1.51"/><path d="M1958,693L1958,540L1804,693Z" fill="#3580e4" stroke="#3580e4" stroke-width="1.51"/><path d="M1958,693L1804,693L1804,847Z" fill="#3887e5" stroke="#3887e5" stroke-width="1.51"/><path d="M1958,693L1804,847L1958,847Z" fill="#3888e6" stroke="#3888e6" stroke-width="1.51"/><path d="M1958,847L1804,847L1804,1000Z" fill="#3b8ee7" stroke="#3b8ee7" stroke-width="1.51"/><path d="M-39,232L-39,386L115,232Z" fill="#579be0" stroke="#579be0" stroke-width="1.51"/><path d="M-39,693L-39,847L115,847Z" fill="#4996e7" stroke="#4996e7" stroke-width="1.51"/><path d="M1958,540L1958,386L1804,386Z" fill="#3d82e1" stroke="#3d82e1" stroke-width="1.51"/><path d="M1958,1000L1958,847L1804,1000Z" fill="#3b8fe7" stroke="#3b8fe7" stroke-width="1.51"/><path d="M-39,847L-39,1000L115,1000Z" fill="#4b9de8" stroke="#4b9de8" stroke-width="1.51"/><path d="M115,1154L115,1308L268,1308Z" fill="#4c93e4" stroke="#4c93e4" stroke-width="1.51"/><path d="M1958,1154L1958,1000L1804,1154Z" fill="#378ae8" stroke="#378ae8" stroke-width="1.51"/><path d="M1804,1154L1958,1000L1804,1000Z" fill="#398de8" stroke="#398de8" stroke-width="1.51"/><path d="M-39,79L-39,232L115,79Z" fill="#5fa5de" stroke="#5fa5de" stroke-width="1.51"/><path d="M115,79L-39,232L115,232Z" fill="#5ea2dd" stroke="#5ea2dd" stroke-width="1.51"/><path d="M1958,386L1958,232L1804,232Z" fill="#4a8de0" stroke="#4a8de0" stroke-width="1.51"/><path d="M1804,-75L1651,-228L1651,-75Z" fill="#4999ea" stroke="#4999ea" stroke-width="1.51"/><path d="M268,-75L115,-75L115,79Z" fill="#5fa5e0" stroke="#5fa5e0" stroke-width="1.51"/><path d="M268,-228L115,-75L268,-75Z" fill="#5ca4e4" stroke="#5ca4e4" stroke-width="1.51"/><path d="M-39,1154L115,1308L115,1154Z" fill="#4994e8" stroke="#4994e8" stroke-width="1.51"/><path d="M422,-228L268,-228L268,-75Z" fill="#5ca4e3" stroke="#5ca4e3" stroke-width="1.51"/><path d="M1804,-75L1651,-75L1804,79Z" fill="#4e9ae4" stroke="#4e9ae4" stroke-width="1.51"/><path d="M1651,-75L1651,-228L1497,-228Z" fill="#469ceb" stroke="#469ceb" stroke-width="1.51"/><path d="M1958,79L1804,-75L1804,79Z" fill="#5098e2" stroke="#5098e2" stroke-width="1.51"/><path d="M1651,1308L1804,1308L1804,1154Z" fill="#3588e8" stroke="#3588e8" stroke-width="1.51"/><path d="M115,-75L-39,79L115,79Z" fill="#5ea5e2" stroke="#5ea5e2" stroke-width="1.51"/><path d="M-39,1000L-39,1154L115,1154Z" fill="#4898e9" stroke="#4898e9" stroke-width="1.51"/><path d="M1958,232L1958,79L1804,79Z" fill="#5497dd" stroke="#5497dd" stroke-width="1.51"/><path d="M1804,1308L1958,1154L1804,1154Z" fill="#3587e8" stroke="#3587e8" stroke-width="1.51"/><path d="M-192,386L-192,540L-39,386Z" fill="#468ee8" stroke="#468ee8" stroke-width="1.51"/><path d="M-39,386L-192,540L-39,540Z" fill="#458be8" stroke="#458be8" stroke-width="1.51"/><path d="M-39,540L-192,540L-39,693Z" fill="#418ae9" stroke="#418ae9" stroke-width="1.51"/><path d="M-39,693L-192,693L-39,847Z" fill="#4492ea" stroke="#4492ea" stroke-width="1.51"/><path d="M-39,847L-192,847L-39,1000Z" fill="#4699eb" stroke="#4699eb" stroke-width="1.51"/><path d="M-39,1000L-192,1000L-39,1154Z" fill="#4598ec" stroke="#4598ec" stroke-width="1.51"/><path d="M-192,386L-39,386L-39,232Z" fill="#5096e5" stroke="#5096e5" stroke-width="1.51"/><path d="M-192,540L-192,693L-39,693Z" fill="#3f8ceb" stroke="#3f8ceb" stroke-width="1.51"/><path d="M1958,232L2111,232L1958,79Z" fill="#5091df" stroke="#5091df" stroke-width="1.51"/><path d="M1958,386L2111,386L1958,232Z" fill="#4486e1" stroke="#4486e1" stroke-width="1.51"/><path d="M1958,540L2111,540L1958,386Z" fill="#367ce3" stroke="#367ce3" stroke-width="1.51"/><path d="M1958,693L2111,540L1958,540Z" fill="#317be4" stroke="#317be4" stroke-width="1.51"/><path d="M2111,693L2111,540L1958,693Z" fill="#317ce4" stroke="#317ce4" stroke-width="1.51"/><path d="M2111,693L1958,693L1958,847Z" fill="#3582e6" stroke="#3582e6" stroke-width="1.51"/><path d="M2111,693L1958,847L2111,847Z" fill="#3584e6" stroke="#3584e6" stroke-width="1.51"/><path d="M2111,847L1958,847L1958,1000Z" fill="#388ae7" stroke="#388ae7" stroke-width="1.51"/><path d="M-192,232L-192,386L-39,232Z" fill="#5298e6" stroke="#5298e6" stroke-width="1.51"/><path d="M-192,693L-192,847L-39,847Z" fill="#4293ec" stroke="#4293ec" stroke-width="1.51"/><path d="M2111,540L2111,386L1958,386Z" fill="#3a7ee2" stroke="#3a7ee2" stroke-width="1.51"/><path d="M2111,1000L2111,847L1958,1000Z" fill="#388be8" stroke="#388be8" stroke-width="1.51"/><path d="M268,-228L115,-228L115,-75Z" fill="#57a2e8" stroke="#57a2e8" stroke-width="1.51"/><path d="M115,-75L-39,-75L-39,79Z" fill="#5aa3e5" stroke="#5aa3e5" stroke-width="1.51"/><path d="M1958,-75L1804,-228L1804,-75Z" fill="#4795ea" stroke="#4795ea" stroke-width="1.51"/><path d="M1804,-75L1804,-228L1651,-228Z" fill="#4497ec" stroke="#4497ec" stroke-width="1.51"/><path d="M-192,847L-192,1000L-39,1000Z" fill="#449bee" stroke="#449bee" stroke-width="1.51"/><path d="M1958,1154L2111,1000L1958,1000Z" fill="#3689e8" stroke="#3689e8" stroke-width="1.51"/><path d="M-192,79L-192,232L-39,79Z" fill="#5ba3e4" stroke="#5ba3e4" stroke-width="1.51"/><path d="M-39,79L-192,232L-39,232Z" fill="#5aa0e3" stroke="#5aa0e3" stroke-width="1.51"/><path d="M2111,386L2111,232L1958,232Z" fill="#4889e0" stroke="#4889e0" stroke-width="1.51"/><path d="M1958,79L1958,-75L1804,-75Z" fill="#4d95e5" stroke="#4d95e5" stroke-width="1.51"/><path d="M115,-228L-39,-75L115,-75Z" fill="#57a2ea" stroke="#57a2ea" stroke-width="1.51"/><path d="M-39,1154L-39,1308L115,1308Z" fill="#4591ea" stroke="#4591ea" stroke-width="1.51"/><path d="M-192,1154L-39,1308L-39,1154Z" fill="#4192ed" stroke="#4192ed" stroke-width="1.51"/><path d="M2111,79L1958,-75L1958,79Z" fill="#4f93e3" stroke="#4f93e3" stroke-width="1.51"/><path d="M1958,1154L2111,1154L2111,1000Z" fill="#3386e8" stroke="#3386e8" stroke-width="1.51"/><path d="M1804,1308L1958,1308L1958,1154Z" fill="#3283e9" stroke="#3283e9" stroke-width="1.51"/><path d="M-39,-75L-192,79L-39,79Z" fill="#59a3e7" stroke="#59a3e7" stroke-width="1.51"/><path d="M-192,1000L-192,1154L-39,1154Z" fill="#4195ee" stroke="#4195ee" stroke-width="1.51"/><path d="M2111,232L2111,79L1958,79Z" fill="#5293de" stroke="#5293de" stroke-width="1.51"/><path d="M1958,1308L2111,1154L1958,1154Z" fill="#3182e9" stroke="#3182e9" stroke-width="1.51"/><path d="M-39,-75L-192,-75L-192,79Z" fill="#55a1ec" stroke="#55a1ec" stroke-width="1.51"/><path d="M115,-228L-39,-228L-39,-75Z" fill="#51a0ee" stroke="#51a0ee" stroke-width="1.51"/><path d="M2111,-75L1958,-228L1958,-75Z" fill="#4490eb" stroke="#4490eb" stroke-width="1.51"/><path d="M1958,-75L1958,-228L1804,-228Z" fill="#4292ed" stroke="#4292ed" stroke-width="1.51"/><path d="M2111,232L2265,232L2111,79Z" fill="#4d8ddf" stroke="#4d8ddf" stroke-width="1.51"/><path d="M2111,386L2265,386L2111,232Z" fill="#4182e2" stroke="#4182e2" stroke-width="1.51"/><path d="M2111,540L2265,540L2111,386Z" fill="#3178e3" stroke="#3178e3" stroke-width="1.51"/><path d="M2111,693L2265,540L2111,540Z" fill="#2c77e4" stroke="#2c77e4" stroke-width="1.51"/><path d="M2265,693L2265,540L2111,693Z" fill="#2d78e5" stroke="#2d78e5" stroke-width="1.51"/><path d="M2265,693L2111,693L2111,847Z" fill="#317ee6" stroke="#317ee6" stroke-width="1.51"/><path d="M2265,693L2111,847L2265,847Z" fill="#3280e7" stroke="#3280e7" stroke-width="1.51"/><path d="M2265,847L2111,847L2111,1000Z" fill="#3586e8" stroke="#3586e8" stroke-width="1.51"/><path d="M2265,540L2265,386L2111,386Z" fill="#377ae3" stroke="#377ae3" stroke-width="1.51"/><path d="M2111,79L2111,-75L1958,-75Z" fill="#4b91e5" stroke="#4b91e5" stroke-width="1.51"/><path d="M2265,1000L2265,847L2111,1000Z" fill="#3587e8" stroke="#3587e8" stroke-width="1.51"/><path d="M-39,-228L-192,-75L-39,-75Z" fill="#51a0ef" stroke="#51a0ef" stroke-width="1.51"/><path d="M-192,1154L-192,1308L-39,1308Z" fill="#3d8ff0" stroke="#3d8ff0" stroke-width="1.51"/><path d="M2265,79L2111,-75L2111,79Z" fill="#4c8fe3" stroke="#4c8fe3" stroke-width="1.51"/><path d="M2111,1154L2265,1000L2111,1000Z" fill="#3385e9" stroke="#3385e9" stroke-width="1.51"/><path d="M1958,1308L2111,1308L2111,1154Z" fill="#2e7fe9" stroke="#2e7fe9" stroke-width="1.51"/><path d="M2265,1154L2265,1000L2111,1154Z" fill="#3082e9" stroke="#3082e9" stroke-width="1.51"/><path d="M2265,386L2265,232L2111,232Z" fill="#4685e1" stroke="#4685e1" stroke-width="1.51"/><path d="M2265,232L2265,79L2111,79Z" fill="#508fde" stroke="#508fde" stroke-width="1.51"/><path d="M2111,1308L2265,1154L2111,1154Z" fill="#2c7ee9" stroke="#2c7ee9" stroke-width="1.51"/><path d="M-39,-228L-192,-228L-192,-75Z" fill="#4b9ef3" stroke="#4b9ef3" stroke-width="1.51"/><path d="M2265,-75L2111,-228L2111,-75Z" fill="#428ceb" stroke="#428ceb" stroke-width="1.51"/><path d="M2111,-75L2111,-228L1958,-228Z" fill="#3f8eed" stroke="#3f8eed" stroke-width="1.51"/><path d="M2265,79L2265,-75L2111,-75Z" fill="#498de6" stroke="#498de6" stroke-width="1.51"/><path d="M2111,1308L2265,1308L2265,1154Z" fill="#297bea" stroke="#297bea" stroke-width="1.51"/><path d="M2265,-75L2265,-228L2111,-228Z" fill="#3c8aee" stroke="#3c8aee" stroke-width="1.51"/></svg>